<mxfile host="app.diagrams.net" agent="Mozilla/5.0 (Windows NT 10.0; Win64; x64) AppleWebKit/537.36 (KHTML, like Gecko) Chrome/131.0.0.0 Safari/537.36" version="24.9.3">
  <diagram name="Página-1" id="P17YKR0Z0oY7ZOafj1wM">
    <mxGraphModel dx="1035" dy="551" grid="1" gridSize="10" guides="1" tooltips="1" connect="1" arrows="1" fold="1" page="1" pageScale="1" pageWidth="827" pageHeight="1169" math="0" shadow="0">
      <root>
        <mxCell id="0" />
        <mxCell id="1" parent="0" />
        <mxCell id="AR38lg1AJSEnVBL2DIY9-3" value="" style="rounded=0;whiteSpace=wrap;html=1;movable=0;resizable=0;rotatable=0;deletable=0;editable=0;locked=1;connectable=0;" vertex="1" parent="1">
          <mxGeometry x="249" y="380" width="330" height="410" as="geometry" />
        </mxCell>
        <mxCell id="AR38lg1AJSEnVBL2DIY9-29" style="rounded=0;orthogonalLoop=1;jettySize=auto;html=1;exitX=0.5;exitY=0.5;exitDx=0;exitDy=0;exitPerimeter=0;entryX=0;entryY=0.5;entryDx=0;entryDy=0;strokeColor=#FF0000;" edge="1" parent="1" source="AR38lg1AJSEnVBL2DIY9-1" target="AR38lg1AJSEnVBL2DIY9-10">
          <mxGeometry relative="1" as="geometry" />
        </mxCell>
        <mxCell id="AR38lg1AJSEnVBL2DIY9-30" style="rounded=0;orthogonalLoop=1;jettySize=auto;html=1;exitX=0.5;exitY=0.5;exitDx=0;exitDy=0;exitPerimeter=0;entryX=0;entryY=0.5;entryDx=0;entryDy=0;strokeColor=#FF0000;" edge="1" parent="1" source="AR38lg1AJSEnVBL2DIY9-1" target="AR38lg1AJSEnVBL2DIY9-11">
          <mxGeometry relative="1" as="geometry" />
        </mxCell>
        <mxCell id="AR38lg1AJSEnVBL2DIY9-31" style="rounded=0;orthogonalLoop=1;jettySize=auto;html=1;exitX=0.5;exitY=0.5;exitDx=0;exitDy=0;exitPerimeter=0;entryX=0;entryY=0.5;entryDx=0;entryDy=0;strokeColor=#FF0000;" edge="1" parent="1" source="AR38lg1AJSEnVBL2DIY9-1" target="AR38lg1AJSEnVBL2DIY9-12">
          <mxGeometry relative="1" as="geometry" />
        </mxCell>
        <mxCell id="AR38lg1AJSEnVBL2DIY9-32" style="rounded=0;orthogonalLoop=1;jettySize=auto;html=1;exitX=0.5;exitY=0.5;exitDx=0;exitDy=0;exitPerimeter=0;entryX=0;entryY=0.5;entryDx=0;entryDy=0;strokeColor=#FF0000;" edge="1" parent="1" source="AR38lg1AJSEnVBL2DIY9-1" target="AR38lg1AJSEnVBL2DIY9-13">
          <mxGeometry relative="1" as="geometry" />
        </mxCell>
        <mxCell id="AR38lg1AJSEnVBL2DIY9-1" value="&lt;span&gt;Usuário&lt;/span&gt;" style="shape=umlActor;verticalLabelPosition=bottom;verticalAlign=top;html=1;outlineConnect=0;fontStyle=1" vertex="1" parent="1">
          <mxGeometry x="190" y="555" width="30" height="60" as="geometry" />
        </mxCell>
        <mxCell id="AR38lg1AJSEnVBL2DIY9-2" value="&lt;b&gt;Sistema&lt;/b&gt;" style="shape=umlActor;verticalLabelPosition=bottom;verticalAlign=top;html=1;outlineConnect=0;" vertex="1" parent="1">
          <mxGeometry x="610" y="555" width="30" height="60" as="geometry" />
        </mxCell>
        <mxCell id="AR38lg1AJSEnVBL2DIY9-5" value="&lt;font style=&quot;font-size: 16px;&quot;&gt;MartCode&lt;/font&gt;" style="text;html=1;align=center;verticalAlign=middle;resizable=0;points=[];autosize=1;strokeColor=none;fillColor=none;fontStyle=1" vertex="1" parent="1">
          <mxGeometry x="369" y="390" width="90" height="30" as="geometry" />
        </mxCell>
        <mxCell id="AR38lg1AJSEnVBL2DIY9-8" value="&lt;font&gt;adicionar item&lt;/font&gt;" style="ellipse;whiteSpace=wrap;html=1;fontStyle=1;strokeColor=default;align=center;verticalAlign=middle;spacing=2;fontFamily=Helvetica;fontSize=6;fontColor=default;textOpacity=90;fillColor=default;" vertex="1" parent="1">
          <mxGeometry x="300" y="470" width="50" height="30" as="geometry" />
        </mxCell>
        <mxCell id="AR38lg1AJSEnVBL2DIY9-10" value="&lt;font&gt;visualizar dados&lt;/font&gt;" style="ellipse;whiteSpace=wrap;html=1;fontStyle=1;strokeColor=default;align=center;verticalAlign=middle;spacing=2;fontFamily=Helvetica;fontSize=6;fontColor=default;textOpacity=90;fillColor=default;" vertex="1" parent="1">
          <mxGeometry x="300" y="520" width="50" height="30" as="geometry" />
        </mxCell>
        <mxCell id="AR38lg1AJSEnVBL2DIY9-11" value="&lt;font&gt;pesquisar por categoria&lt;/font&gt;" style="ellipse;whiteSpace=wrap;html=1;fontStyle=1;strokeColor=default;align=center;verticalAlign=middle;spacing=2;fontFamily=Helvetica;fontSize=6;fontColor=default;textOpacity=90;fillColor=default;" vertex="1" parent="1">
          <mxGeometry x="300" y="570" width="50" height="30" as="geometry" />
        </mxCell>
        <mxCell id="AR38lg1AJSEnVBL2DIY9-12" value="&lt;font&gt;atualizar atributo&lt;/font&gt;" style="ellipse;whiteSpace=wrap;html=1;fontStyle=1;strokeColor=default;align=center;verticalAlign=middle;spacing=2;fontFamily=Helvetica;fontSize=6;fontColor=default;textOpacity=90;fillColor=default;" vertex="1" parent="1">
          <mxGeometry x="300" y="620" width="50" height="30" as="geometry" />
        </mxCell>
        <mxCell id="AR38lg1AJSEnVBL2DIY9-13" value="&lt;font&gt;deletar item&lt;/font&gt;" style="ellipse;whiteSpace=wrap;html=1;fontStyle=1;strokeColor=default;align=center;verticalAlign=middle;spacing=2;fontFamily=Helvetica;fontSize=6;fontColor=default;textOpacity=90;fillColor=default;" vertex="1" parent="1">
          <mxGeometry x="300" y="670" width="50" height="30" as="geometry" />
        </mxCell>
        <mxCell id="AR38lg1AJSEnVBL2DIY9-17" style="edgeStyle=orthogonalEdgeStyle;rounded=0;orthogonalLoop=1;jettySize=auto;html=1;exitX=0.5;exitY=0;exitDx=0;exitDy=0;entryX=0.5;entryY=1;entryDx=0;entryDy=0;" edge="1" parent="1" source="AR38lg1AJSEnVBL2DIY9-14" target="AR38lg1AJSEnVBL2DIY9-16">
          <mxGeometry relative="1" as="geometry" />
        </mxCell>
        <mxCell id="AR38lg1AJSEnVBL2DIY9-14" value="recebe informações" style="ellipse;whiteSpace=wrap;html=1;spacing=2;textOpacity=90;fontSize=6;fontStyle=1" vertex="1" parent="1">
          <mxGeometry x="480" y="570" width="50" height="30" as="geometry" />
        </mxCell>
        <mxCell id="AR38lg1AJSEnVBL2DIY9-15" style="edgeStyle=orthogonalEdgeStyle;rounded=0;orthogonalLoop=1;jettySize=auto;html=1;exitX=0.5;exitY=0.5;exitDx=0;exitDy=0;exitPerimeter=0;entryX=1;entryY=0.5;entryDx=0;entryDy=0;" edge="1" parent="1" source="AR38lg1AJSEnVBL2DIY9-2" target="AR38lg1AJSEnVBL2DIY9-14">
          <mxGeometry relative="1" as="geometry" />
        </mxCell>
        <mxCell id="AR38lg1AJSEnVBL2DIY9-19" style="edgeStyle=orthogonalEdgeStyle;rounded=0;orthogonalLoop=1;jettySize=auto;html=1;exitX=0.5;exitY=0;exitDx=0;exitDy=0;entryX=0.5;entryY=1;entryDx=0;entryDy=0;" edge="1" parent="1" source="AR38lg1AJSEnVBL2DIY9-16" target="AR38lg1AJSEnVBL2DIY9-18">
          <mxGeometry relative="1" as="geometry" />
        </mxCell>
        <mxCell id="AR38lg1AJSEnVBL2DIY9-16" value="verifica" style="ellipse;whiteSpace=wrap;html=1;spacing=2;textOpacity=90;fontSize=6;fontStyle=1" vertex="1" parent="1">
          <mxGeometry x="480" y="520" width="50" height="30" as="geometry" />
        </mxCell>
        <mxCell id="AR38lg1AJSEnVBL2DIY9-18" value="insere o comando no banco de dados" style="ellipse;whiteSpace=wrap;html=1;spacing=2;textOpacity=90;fontSize=6;fontStyle=1" vertex="1" parent="1">
          <mxGeometry x="480" y="470" width="50" height="30" as="geometry" />
        </mxCell>
        <mxCell id="AR38lg1AJSEnVBL2DIY9-27" style="rounded=0;orthogonalLoop=1;jettySize=auto;html=1;exitX=0.5;exitY=0.5;exitDx=0;exitDy=0;exitPerimeter=0;entryX=0;entryY=0.5;entryDx=0;entryDy=0;strokeColor=#FF0000;" edge="1" parent="1" source="AR38lg1AJSEnVBL2DIY9-1" target="AR38lg1AJSEnVBL2DIY9-8">
          <mxGeometry relative="1" as="geometry" />
        </mxCell>
      </root>
    </mxGraphModel>
  </diagram>
</mxfile>
